<svg width="206" height="180" viewBox="0 0 206 180" fill="none" xmlns="http://www.w3.org/2000/svg">
<circle r="6.5" transform="matrix(-1 0 0 1 6.5 27.9214)" fill="#FF7020"/>
<rect x="140.453" y="47.8866" width="54.5891" height="54.619" rx="27.2945" transform="rotate(-165 140.453 47.8866)" fill="black"/>
<path d="M107.703 89.9303L227.292 209.519C194.24 242.191 140.961 242.073 108.055 209.167C75.1489 176.261 75.0314 122.982 107.703 89.9303Z" stroke="#FF7020"/>
<path d="M75.6398 67.8554C75.5 67.3212 75.2537 66.8209 74.9157 66.3843C74.5777 65.9477 74.155 65.5839 73.6729 65.3148L46.9563 50.856C46.0593 50.3633 45.0105 50.224 44.016 50.4655C43.0215 50.7071 42.1535 51.3121 41.5825 52.1614L24.7764 77.4029C24.4596 77.8735 24.2441 78.4047 24.1433 78.9629C24.0425 79.5211 24.0588 80.0942 24.191 80.6459L36.4839 130.321L87.9093 117.583L75.6398 67.8554ZM48.0217 66.5968C47.2342 66.7969 46.4051 66.7584 45.6396 66.4861C44.8741 66.2139 44.2069 65.7203 43.7226 65.068C43.2383 64.4157 42.9588 63.6341 42.9197 62.8226C42.8806 62.0111 43.0836 61.2063 43.5029 60.5104C43.9223 59.8145 44.539 59.2591 45.2748 58.9145C46.0105 58.5699 46.8321 58.4519 47.6351 58.5753C48.4381 58.6987 49.1863 59.0581 49.7847 59.6077C50.383 60.1573 50.8044 60.8724 50.9954 61.6621C51.2489 62.7104 51.0789 63.8165 50.5222 64.7403C49.9655 65.6641 49.067 66.3312 48.0217 66.5968Z" fill="black"/>
<path d="M75.9085 78.1287C75.9016 77.4939 75.7657 76.8672 75.5091 76.2865C75.2525 75.7059 74.8805 75.1835 74.4158 74.7511L48.6123 51.2423C47.7515 50.4378 46.6189 49.9873 45.4406 49.9808C44.2623 49.9743 43.1249 50.4122 42.2551 51.2072L16.5337 74.7276C16.0514 75.1659 15.6659 75.6999 15.4018 76.2956C15.1377 76.8913 15.0009 77.5356 15 78.1872V137H75.8792L75.9085 78.1287ZM45.4396 69.0963C44.5134 69.0963 43.608 68.8217 42.8379 68.3071C42.0677 67.7925 41.4675 67.0611 41.1131 66.2054C40.7586 65.3497 40.6659 64.4081 40.8466 63.4997C41.0273 62.5913 41.4733 61.7568 42.1282 61.1019C42.7831 60.447 43.6176 60.001 44.526 59.8203C45.4344 59.6396 46.376 59.7323 47.2317 60.0868C48.0874 60.4412 48.8188 61.0414 49.3334 61.8116C49.848 62.5817 50.1226 63.4871 50.1226 64.4133C50.1226 65.6553 49.6292 66.8465 48.751 67.7247C47.8728 68.6029 46.6816 69.0963 45.4396 69.0963Z" fill="#FF7020"/>
<path d="M58.0871 89.7133L32.8164 114.978" stroke="black" stroke-miterlimit="10"/>
<path d="M36.3287 96.7378C38.2684 96.7378 39.8409 95.1653 39.8409 93.2255C39.8409 91.2858 38.2684 89.7133 36.3287 89.7133C34.3889 89.7133 32.8164 91.2858 32.8164 93.2255C32.8164 95.1653 34.3889 96.7378 36.3287 96.7378Z" fill="black"/>
<path d="M54.5748 114.978C56.5145 114.978 58.087 113.406 58.087 111.466C58.087 109.526 56.5145 107.954 54.5748 107.954C52.635 107.954 51.0625 109.526 51.0625 111.466C51.0625 113.406 52.635 114.978 54.5748 114.978Z" fill="black"/>
<path d="M49.8119 63.5703C47.2829 64.5869 44.4785 64.6892 41.8821 63.8597C39.2858 63.0301 37.0602 61.3206 35.5892 59.026C34.1182 56.7314 33.4939 53.9954 33.824 51.2898C34.154 48.5842 35.4178 46.0786 37.3973 44.2049C39.3768 42.3312 41.9481 41.2069 44.6677 41.0259C47.3874 40.8448 50.085 41.6184 52.2954 43.2132C54.5058 44.8079 56.0905 47.124 56.7763 49.7619C57.462 52.3999 57.2059 55.1945 56.052 57.6639" stroke="black" stroke-miterlimit="10"/>
</svg>
