<svg width="216" height="180" viewBox="0 0 216 180" fill="none" xmlns="http://www.w3.org/2000/svg">
<circle r="6.5" transform="matrix(-1 0 0 1 16.5 20.9214)" fill="#FF7020"/>
<rect x="150.451" y="47.8866" width="54.5891" height="54.619" rx="27.2945" transform="rotate(-165 150.451 47.8866)" fill="black"/>
<path d="M117.703 89.9303L237.293 209.519C204.241 242.191 150.962 242.073 118.056 209.167C85.1496 176.261 85.0321 122.982 117.703 89.9303Z" stroke="#FF7020"/>
<path d="M112.457 74.9143H8.22852V138H112.457V74.9143Z" fill="white"/>
<path d="M15.0857 74.9143H0L7.70743 44.0571C7.85965 43.4676 8.20373 42.9454 8.68544 42.573C9.16715 42.2005 9.7591 41.9989 10.368 42H22.6286L15.0857 74.9143Z" fill="#FF7020"/>
<path d="M30.1717 74.9143H15.0859L22.6288 42H36.3431L30.1717 74.9143Z" fill="black"/>
<path d="M60.3435 74.9143H45.2578L47.315 42H61.715L60.3435 74.9143Z" fill="black"/>
<path d="M90.5136 74.9143H75.4279L74.7422 42H87.7708L90.5136 74.9143Z" fill="black"/>
<path d="M120.685 74.9143H105.599L99.4277 42H110.317C110.926 41.9989 111.518 42.2005 111.999 42.573C112.481 42.9454 112.825 43.4676 112.977 44.0571L120.685 74.9143Z" fill="black"/>
<path d="M45.2576 74.9143H30.1719L36.3433 42H49.3719L45.2576 74.9143Z" fill="#FF7020"/>
<path d="M90.5143 74.9143H105.6L100.8 42H87.7715L90.5143 74.9143Z" fill="#FF7020"/>
<path d="M75.4295 74.9143H60.3438L61.7152 42H74.7438L75.4295 74.9143Z" fill="#FF7020"/>
<path d="M9.6 81.7715H5.48571C4.03081 81.7715 2.6355 81.1935 1.60673 80.1647C0.577957 79.1359 0 77.7406 0 76.2857V74.9143H15.0857V76.2857C15.0857 77.7406 14.5078 79.1359 13.479 80.1647C12.4502 81.1935 11.0549 81.7715 9.6 81.7715Z" fill="#FF7020"/>
<path d="M24.6859 81.7715H20.5717C19.1167 81.7715 17.7214 81.1935 16.6927 80.1647C15.6639 79.1359 15.0859 77.7406 15.0859 76.2857V74.9143H30.1717V76.2857C30.1717 77.7406 29.5937 79.1359 28.5649 80.1647C27.5362 81.1935 26.1408 81.7715 24.6859 81.7715Z" fill="black"/>
<path d="M39.7719 81.7715H35.6576C34.2027 81.7715 32.8074 81.1935 31.7786 80.1647C30.7498 79.1359 30.1719 77.7406 30.1719 76.2857V74.9143H45.2576V76.2857C45.2576 77.7406 44.6796 79.1359 43.6509 80.1647C42.6221 81.1935 41.2268 81.7715 39.7719 81.7715Z" fill="#FF7020"/>
<path d="M54.8578 81.7715H50.7435C49.2886 81.7715 47.8933 81.1935 46.8645 80.1647C45.8358 79.1359 45.2578 77.7406 45.2578 76.2857V74.9143H60.3435V76.2857C60.3435 77.7406 59.7656 79.1359 58.7368 80.1647C57.708 81.1935 56.3127 81.7715 54.8578 81.7715Z" fill="black"/>
<path d="M69.9438 81.7715H65.8295C64.3746 81.7715 62.9793 81.1935 61.9505 80.1647C60.9217 79.1359 60.3438 77.7406 60.3438 76.2857V74.9143H75.4295V76.2857C75.4295 77.7406 74.8515 79.1359 73.8227 80.1647C72.794 81.1935 71.3987 81.7715 69.9438 81.7715Z" fill="#FF7020"/>
<path d="M85.0277 81.7715H80.9134C79.4585 81.7715 78.0632 81.1935 77.0345 80.1647C76.0057 79.1359 75.4277 77.7406 75.4277 76.2857V74.9143H90.5134V76.2857C90.5134 77.7406 89.9355 79.1359 88.9067 80.1647C87.8779 81.1935 86.4826 81.7715 85.0277 81.7715Z" fill="black"/>
<path d="M100.114 81.7715H95.9994C94.5445 81.7715 93.1492 81.1935 92.1204 80.1647C91.0916 79.1359 90.5137 77.7406 90.5137 76.2857V74.9143H105.599V76.2857C105.599 77.7406 105.021 79.1359 103.993 80.1647C102.964 81.1935 101.569 81.7715 100.114 81.7715Z" fill="#FF7020"/>
<path d="M115.2 81.7715H111.085C109.63 81.7715 108.235 81.1935 107.206 80.1647C106.178 79.1359 105.6 77.7406 105.6 76.2857V74.9143H120.685V76.2857C120.685 77.7406 120.107 79.1359 119.079 80.1647C118.05 81.1935 116.655 81.7715 115.2 81.7715Z" fill="black"/>
<path d="M101.142 121.543V105.086C101.142 102.176 99.9861 99.3853 97.9286 97.3277C95.871 95.2702 93.0804 94.1143 90.1706 94.1143H74.3992C71.4894 94.1143 68.6987 95.2702 66.6412 97.3277C64.5837 99.3853 63.4277 102.176 63.4277 105.086V121.543H101.142Z" fill="#FFEADE"/>
<path d="M51.7722 138V105.086C51.7722 102.176 50.6162 99.3853 48.5587 97.3277C46.5012 95.2702 43.7105 94.1143 40.8007 94.1143H36.0007C33.0909 94.1143 30.3003 95.2702 28.2428 97.3277C26.1852 99.3853 25.0293 102.176 25.0293 105.086V138" fill="black"/>
<path d="M24.6855 105.429H52.1141" stroke="white" stroke-miterlimit="10"/>
<path d="M38.4004 105.429V93.7715" stroke="white" stroke-miterlimit="10"/>
<path d="M28.793 95.8286L38.057 105.093H38.8387L48.0478 95.8835" stroke="white" stroke-miterlimit="10"/>
<path d="M120.686 136.629H0V138.129H120.686V136.629Z" fill="#010101"/>
<path d="M46.2857 123.518C47.4218 123.518 48.3428 122.597 48.3428 121.461C48.3428 120.324 47.4218 119.403 46.2857 119.403C45.1495 119.403 44.2285 120.324 44.2285 121.461C44.2285 122.597 45.1495 123.518 46.2857 123.518Z" fill="#FFEADE"/>
</svg>
