<svg width="209" height="180" viewBox="0 0 209 180" fill="none" xmlns="http://www.w3.org/2000/svg">
<circle r="6.5" transform="matrix(-1 0 0 1 9.5 27.9214)" fill="#FF7020"/>
<rect x="143.451" y="47.8866" width="54.5891" height="54.619" rx="27.2945" transform="rotate(-165 143.451 47.8866)" fill="black"/>
<path d="M110.703 89.9303L230.293 209.519C197.241 242.191 143.962 242.073 111.056 209.167C78.1496 176.261 78.0321 122.982 110.703 89.9303Z" stroke="#FF7020"/>
<path d="M104.229 136.629H0V138H104.229V136.629Z" fill="#010101"/>
<path d="M35.657 42H68.5713C71.4811 42 74.2717 43.1559 76.3292 45.2135C78.3868 47.271 79.5427 50.0616 79.5427 52.9714V136.629H24.6855V52.9714C24.6855 50.0616 25.8415 47.271 27.899 45.2135C29.9565 43.1559 32.7472 42 35.657 42V42Z" fill="#FF7020"/>
<path d="M21.9434 52.9714H82.2862" stroke="black" stroke-width="2" stroke-miterlimit="10"/>
<path d="M71.3147 58.4572H32.9147C31.3999 58.4572 30.1719 59.6852 30.1719 61.2V83.1429C30.1719 84.6577 31.3999 85.8857 32.9147 85.8857H71.3147C72.8296 85.8857 74.0576 84.6577 74.0576 83.1429V61.2C74.0576 59.6852 72.8296 58.4572 71.3147 58.4572Z" fill="#FFEADE"/>
<path d="M30.1713 127.029H19.1999C17.745 127.029 16.3497 126.451 15.3209 125.422C14.2921 124.393 13.7142 122.998 13.7142 121.543L14.0433 63.8332C14.0475 63.1079 13.9078 62.3891 13.6324 61.7182C13.357 61.0473 12.9513 60.4377 12.4387 59.9246L5.71875 53.2046" stroke="black" stroke-miterlimit="10"/>
<path d="M6 74V76.8663C6 78.3212 6.57796 79.7165 7.60673 80.7453C8.6355 81.774 10.0308 82.352 11.4857 82.352H14.1051" stroke="black" stroke-miterlimit="10"/>
<path d="M8.22919 63.9429H13.7149V74.9143H5.48633V66.6857C5.48633 65.9583 5.77531 65.2606 6.28969 64.7462C6.80408 64.2319 7.50173 63.9429 8.22919 63.9429Z" fill="black"/>
<path d="M67.0367 95.16C67.0332 95.1449 67.0256 95.1312 67.0147 95.1203C67.0038 95.1093 66.99 95.1017 66.975 95.0983C66.9627 95.0903 66.9484 95.0861 66.9338 95.0861C66.9192 95.0861 66.9049 95.0903 66.8927 95.0983L66.831 95.1463L66.6527 95.304C66.4881 95.4343 66.2481 95.6263 65.9258 95.8594C65.6035 96.0925 65.4321 96.2023 65.1304 96.3943C61.447 98.684 57.186 99.8735 52.8493 99.8228H52.0264C48.6493 99.7844 45.3161 99.0515 42.2344 97.6697C40.6186 96.9818 39.1141 96.0574 37.7704 94.9268L37.5921 94.7691L37.4138 94.6114L37.359 94.5565C37.3451 94.5499 37.3298 94.5464 37.3144 94.5464C37.299 94.5464 37.2837 94.5499 37.2698 94.5565C37.2557 94.5604 37.2429 94.5683 37.2332 94.5792C37.2235 94.5902 37.2171 94.6038 37.215 94.6183C37.192 94.7497 37.1782 94.8826 37.1738 95.016V95.0571C37.178 95.2654 37.2296 95.4699 37.3247 95.6553C37.4197 95.8406 37.5557 96.0019 37.7224 96.1268C41.7056 99.5367 46.7561 101.446 51.999 101.523C57.2406 101.643 62.359 99.9257 66.4675 96.6685C66.6405 96.552 66.7834 96.3962 66.8847 96.2138C66.986 96.0315 67.0428 95.8278 67.0504 95.6194V95.5714C67.0548 95.4341 67.0502 95.2967 67.0367 95.16Z" fill="black"/>
</svg>
